<svg xmlns="http://www.w3.org/2000/svg" viewBox="0 0 64 64" role="img" aria-label="Devre Market">
  <rect width="64" height="64" rx="16" fill="#e8f8ff"/>
  <rect x="9" y="9" width="46" height="46" rx="13" fill="#1aa7d8"/>
  <path d="M17 18h8c4 0 6 2 6 6v4" fill="none" stroke="#bff6ff" stroke-width="4" stroke-linecap="round"/>
  <path d="M47 46h-8c-4 0-6-2-6-6v-4" fill="none" stroke="#bff6ff" stroke-width="4" stroke-linecap="round"/>
  <circle cx="17" cy="18" r="3.5" fill="#ffffff"/>
  <circle cx="47" cy="46" r="3.5" fill="#ffffff"/>
  <g fill="#0f2f46">
    <rect x="17" y="27" width="7" height="4" rx="1.4"/>
    <rect x="17" y="33" width="7" height="4" rx="1.4"/>
    <rect x="40" y="27" width="7" height="4" rx="1.4"/>
    <rect x="40" y="33" width="7" height="4" rx="1.4"/>
    <rect x="27" y="17" width="4" height="7" rx="1.4"/>
    <rect x="33" y="17" width="4" height="7" rx="1.4"/>
    <rect x="27" y="40" width="4" height="7" rx="1.4"/>
    <rect x="33" y="40" width="4" height="7" rx="1.4"/>
  </g>
  <rect x="24" y="24" width="16" height="16" rx="4" fill="#0f2f46"/>
  <path d="M27.5 32h2.7l1.8-3.5 3 7 1.8-3.5h2.7" fill="none" stroke="#ffffff" stroke-width="2.2" stroke-linecap="round" stroke-linejoin="round"/>
</svg>
