<svg xmlns="http://www.w3.org/2000/svg" viewBox="0 0 64 64" role="img" aria-label="Devre Market">
  <defs>
    <linearGradient id="bg" x1="8" y1="6" x2="58" y2="60" gradientUnits="userSpaceOnUse">
      <stop stop-color="#0f2f46"/>
      <stop offset="0.55" stop-color="#123f56"/>
      <stop offset="1" stop-color="#0a7674"/>
    </linearGradient>
    <linearGradient id="chip" x1="22" y1="20" x2="44" y2="44" gradientUnits="userSpaceOnUse">
      <stop stop-color="#1d6aa4"/>
      <stop offset="1" stop-color="#0b8f8c"/>
    </linearGradient>
  </defs>
  <rect width="64" height="64" rx="15" fill="url(#bg)"/>
  <path d="M12 17h8c4 0 6 2 6 6v3" fill="none" stroke="#5ee7df" stroke-width="3.5" stroke-linecap="round"/>
  <path d="M52 47h-8c-4 0-6-2-6-6v-3" fill="none" stroke="#5ee7df" stroke-width="3.5" stroke-linecap="round"/>
  <path d="M18 52h8c4 0 6-2 6-6V18c0-4 2-6 6-6h8" fill="none" stroke="#f3b400" stroke-width="3.5" stroke-linecap="round"/>
  <circle cx="12" cy="17" r="3.5" fill="#f3b400"/>
  <circle cx="52" cy="47" r="3.5" fill="#f3b400"/>
  <circle cx="46" cy="12" r="3" fill="#5ee7df"/>
  <circle cx="18" cy="52" r="3" fill="#5ee7df"/>
  <g fill="#f3b400">
    <rect x="19" y="26" width="5" height="3" rx="1"/>
    <rect x="19" y="35" width="5" height="3" rx="1"/>
    <rect x="40" y="26" width="5" height="3" rx="1"/>
    <rect x="40" y="35" width="5" height="3" rx="1"/>
    <rect x="26" y="19" width="3" height="5" rx="1"/>
    <rect x="35" y="19" width="3" height="5" rx="1"/>
    <rect x="26" y="40" width="3" height="5" rx="1"/>
    <rect x="35" y="40" width="3" height="5" rx="1"/>
  </g>
  <rect x="23" y="23" width="18" height="18" rx="5" fill="url(#chip)" stroke="#e9ffff" stroke-width="2.5"/>
  <path d="M28 32h3l2-4 3 8 2-4h3" fill="none" stroke="#e9ffff" stroke-width="2.3" stroke-linecap="round" stroke-linejoin="round"/>
</svg>
