<svg xmlns="http://www.w3.org/2000/svg" viewBox="0 0 64 64" role="img" aria-label="Devre Market">
  <defs>
    <linearGradient id="body" x1="10" y1="8" x2="56" y2="58" gradientUnits="userSpaceOnUse">
      <stop stop-color="#12324a"/>
      <stop offset="1" stop-color="#0b8f8c"/>
    </linearGradient>
  </defs>
  <rect width="64" height="64" rx="14" fill="#102635"/>
  <rect x="13" y="15" width="38" height="34" rx="8" fill="url(#body)" stroke="#69e6df" stroke-width="3"/>
  <rect x="20" y="22" width="24" height="12" rx="3" fill="#071a24" stroke="#dffcff" stroke-width="2"/>
  <path d="M23 28h5l3-4 4 8 3-4h4" fill="none" stroke="#69e6df" stroke-width="2.5" stroke-linecap="round" stroke-linejoin="round"/>
  <circle cx="23" cy="41" r="3" fill="#f3b400"/>
  <circle cx="32" cy="41" r="3" fill="#dffcff"/>
  <circle cx="41" cy="41" r="3" fill="#f3b400"/>
  <path d="M6 25h7M51 25h7M6 38h7M51 38h7" stroke="#69e6df" stroke-width="4" stroke-linecap="round"/>
  <path d="M25 8v7M39 8v7M25 49v7M39 49v7" stroke="#f3b400" stroke-width="4" stroke-linecap="round"/>
</svg>
