<svg xmlns="http://www.w3.org/2000/svg" viewBox="0 0 64 64" role="img" aria-label="Devre Market">
  <defs>
    <linearGradient id="bg" x1="10" y1="8" x2="56" y2="58" gradientUnits="userSpaceOnUse">
      <stop stop-color="#1565c0"/>
      <stop offset="1" stop-color="#009f9f"/>
    </linearGradient>
  </defs>
  <rect width="64" height="64" rx="14" fill="#102635"/>
  <path d="M10 18h11c4 0 7 3 7 7v4" fill="none" stroke="#52d3d3" stroke-width="4" stroke-linecap="round"/>
  <path d="M54 46H43c-4 0-7-3-7-7v-4" fill="none" stroke="#52d3d3" stroke-width="4" stroke-linecap="round"/>
  <path d="M18 52h8c4 0 6-2 6-6V18c0-4 2-6 6-6h8" fill="none" stroke="#f3b400" stroke-width="4" stroke-linecap="round"/>
  <circle cx="11" cy="18" r="4" fill="#f3b400"/>
  <circle cx="53" cy="46" r="4" fill="#f3b400"/>
  <circle cx="46" cy="12" r="3" fill="#52d3d3"/>
  <circle cx="18" cy="52" r="3" fill="#52d3d3"/>
  <path d="M21 29h22l-3 17H24l-3-17Z" fill="url(#bg)" stroke="#ffffff" stroke-width="3" stroke-linejoin="round"/>
  <path d="M26 29c0-5 3-9 7-9s7 4 7 9" fill="none" stroke="#ffffff" stroke-width="3" stroke-linecap="round"/>
  <rect x="29" y="35" width="8" height="7" rx="2" fill="#102635"/>
</svg>
